HIERARCHY
ROOT Hips
{
	OFFSET 0.000000 0.000000 0.000000
	CHANNELS 6 Xposition Yposition Zposition Zrotation Yrotation Xrotation 
	JOINT LHipJoint
	{
		OFFSET 0.000000 0.000000 0.000000
		CHANNELS 3 Zrotation Yrotation Xrotation
		JOINT LeftUpLeg
		{
			OFFSET 1.363060 -1.794630 0.839290
			CHANNELS 3 Zrotation Yrotation Xrotation
			JOINT LeftLeg
			{
				OFFSET 2.448110 -6.726130 0.000000
				CHANNELS 3 Zrotation Yrotation Xrotation
				JOINT LeftFoot
				{
					OFFSET 2.562200 -7.039590 0.000000
					CHANNELS 3 Zrotation Yrotation Xrotation
					JOINT LeftToeBase
					{
						OFFSET 0.157640 -0.433110 2.322550
						CHANNELS 3 Zrotation Yrotation Xrotation
						End Site
						{
							OFFSET 0.000000 0.000000 0.000000
						}
					}
				}
			}
		}
	}
	JOINT RHipJoint
	{
		OFFSET 0.000000 0.000000 0.000000
		CHANNELS 3 Zrotation Yrotation Xrotation
		JOINT RightUpLeg
		{
			OFFSET -1.305520 -1.794630 0.839290
			CHANNELS 3 Zrotation Yrotation Xrotation
			JOINT RightLeg
			{
				OFFSET -2.542530 -6.985550 0.000000
				CHANNELS 3 Zrotation Yrotation Xrotation
				JOINT RightFoot
				{
					OFFSET -2.568260 -7.056230 0.000000
					CHANNELS 3 Zrotation Yrotation Xrotation
					JOINT RightToeBase
					{
						OFFSET -0.164730 -0.452590 2.363150
						CHANNELS 3 Zrotation Yrotation Xrotation
						End Site
						{
							OFFSET 0.000000 0.000000 0.000000
						}
					}
				}
			}
		}
	}
}
MOTION
Frames: 16
Frame Time: 0.008333
3.414030 17.099829 1.492987 15.905924 -27.568499 -1.481181 -7.685764 0.404688 9.317638 -15.823957 -32.326262 -9.959534 -4.394461 -1.138014 -2.011058 -1.096506 -6.897256 11.036995 -1.409600 0.000000 -40.509000 12.012935 -0.425656 -5.451731 -13.686313 -40.160454 7.200002 0.124207 0.658448 -1.299654 -5.178041 -31.105914 2.361822 -7.536101 0.000000 -53.388100
3.415302 17.102028 1.475512 16.042431 -27.445288 -1.567067 -7.752277 0.318649 9.293564 -15.836716 -32.539612 -9.929688 -4.388700 -1.128730 -1.954517 -1.079284 -6.675902 11.101206 -1.350800 -0.000000 -40.399600 11.943251 -0.440428 -5.503349 -13.735513 -40.112732 7.341663 0.108507 0.640174 -1.446258 -5.198514 -31.199620 2.412986 -7.593500 0.000001 -53.365900
3.413804 17.104523 1.458030 16.156170 -27.335971 -1.617360 -7.803297 0.243588 9.276419 -15.815725 -32.750935 -9.936195 -4.382003 -1.120718 -1.906174 -1.063842 -6.475346 11.170513 -1.298200 -0.000000 -40.289000 11.889556 -0.455964 -5.551612 -13.753612 -40.089584 7.459763 0.099266 0.629393 -1.630187 -5.212995 -31.270965 2.465746 -7.645400 0.000000 -53.338901
3.409393 17.107269 1.440563 16.242015 -27.233544 -1.636536 -7.835869 0.181484 9.267980 -15.764051 -32.952766 -9.971089 -4.375976 -1.114615 -1.870243 -1.051481 -6.307961 11.247401 -1.255300 -0.000000 -40.191400 11.855155 -0.473182 -5.595538 -13.748199 -40.107128 7.557770 0.097878 0.626143 -1.845332 -5.219470 -31.310861 2.518539 -7.687100 0.000001 -53.304900
3.402094 17.110228 1.423165 16.299886 -27.140688 -1.629374 -7.850560 0.133367 9.267973 -15.683272 -33.136271 -10.028203 -4.371138 -1.110782 -1.850081 -1.042691 -6.178776 11.332450 -1.223900 0.000000 -40.114199 11.840213 -0.492651 -5.633996 -13.722075 -40.168030 7.635543 0.104619 0.629883 -2.084807 -5.217041 -31.314635 2.572145 -7.717400 0.000000 -53.274400
3.392326 17.113435 1.405875 16.330191 -27.066752 -1.600687 -7.850712 0.099280 9.274733 -15.574349 -33.292318 -10.102670 -4.366976 -1.109174 -1.847073 -1.037222 -6.085916 11.424637 -1.203299 -0.000000 -40.073100 11.842006 -0.514659 -5.666483 -13.675432 -40.269004 7.689760 0.119825 0.639591 -2.340033 -5.204742 -31.276072 2.628261 -7.735099 0.000000 -53.257400
3.380428 17.116992 1.388811 16.336547 -27.028017 -1.552702 -7.840388 0.079070 9.286690 -15.436032 -33.412181 -10.196354 -4.362341 -1.109827 -1.861005 -1.034199 -6.020934 11.518836 -1.190800 0.000001 -40.055300 11.857171 -0.539363 -5.689813 -13.601412 -40.390987 7.711084 0.142609 0.654449 -2.602951 -5.183261 -31.193457 2.680710 -7.736400 0.000001 -53.246100
3.367157 17.121086 1.372046 16.318892 -27.044304 -1.488812 -7.824851 0.072063 9.300963 -15.266997 -33.486518 -10.307409 -4.355479 -1.112517 -1.891550 -1.032315 -5.970887 11.611034 -1.182500 0.000000 -40.068901 11.881178 -0.567727 -5.701639 -13.491295 -40.512060 7.692109 0.171644 0.673003 -2.866851 -5.153447 -31.069166 2.734706 -7.725400 -0.000000 -53.260200
3.353128 17.125782 1.355641 16.279978 -27.136563 -1.411732 -7.808307 0.077675 9.314774 -15.065900 -33.507132 -10.434970 -4.344775 -1.117307 -1.938054 -1.030015 -5.918957 11.695354 -1.172900 0.000000 -40.104000 11.910541 -0.600605 -5.698408 -13.335067 -40.604465 7.625153 0.205079 0.694095 -3.125861 -5.116740 -30.904735 2.785203 -7.700200 0.000000 -53.288000
3.339065 17.131163 1.339698 16.220977 -27.323127 -1.323275 -7.794504 0.095209 9.326287 -14.831429 -33.470530 -10.579640 -4.328405 -1.123813 -1.996411 -1.025581 -5.847345 11.764669 -1.156200 -0.000000 -40.160300 11.941743 -0.638692 -5.677380 -13.124518 -40.644475 7.504127 0.240928 0.716520 -3.376249 -5.074584 -30.706271 2.838693 -7.667200 0.000000 -53.370100
3.325598 17.137199 1.324191 16.142516 -27.620013 -1.225814 -7.785849 0.123960 9.333622 -14.563667 -33.373661 -10.740777 -4.304982 -1.131791 -2.062621 -1.017495 -5.739798 11.811893 -1.126900 0.000000 -40.228000 11.972301 -0.682419 -5.636321 -12.854176 -40.611792 7.325809 0.277639 0.739365 -3.613999 -5.027973 -30.475199 2.893293 -7.625900 0.000000 -53.501400
3.313135 17.143833 1.308985 16.047535 -28.043958 -1.124924 -7.783057 0.163214 9.333349 -14.269571 -33.209641 -10.909899 -4.274123 -1.141695 -2.138544 -1.004484 -5.580493 11.833812 -1.080101 -0.000000 -40.302000 12.001603 -0.731804 -5.571627 -12.522486 -40.477200 7.093261 0.311929 0.762006 -3.839003 -4.979282 -30.216703 2.937771 -7.573000 0.000000 -53.648600
3.302154 17.150957 1.294012 15.935333 -28.596649 -1.021233 -7.786387 0.212237 9.325929 -13.949361 -32.985372 -11.089192 -4.234844 -1.152481 -2.213974 -0.985465 -5.360907 11.822841 -1.012700 0.000000 -40.373101 12.028112 -0.786027 -5.485031 -12.134010 -40.244447 6.809561 0.343886 0.784060 -4.050100 -4.928047 -29.932789 2.984806 -7.515801 -0.000000 -53.866200
3.292765 17.158388 1.278999 15.811932 -29.287851 -0.922359 -7.795174 0.269945 9.306812 -13.615368 -32.693496 -11.266237 -4.187781 -1.164632 -2.292836 -0.959810 -5.073664 11.780660 -0.922900 -0.000000 -40.447900 12.052329 -0.843520 -5.375143 -11.696864 -39.892683 6.486044 0.370436 0.805442 -4.249681 -4.876438 -29.627171 3.017190 -7.447000 0.000000 -54.094600
3.284940 17.165971 1.263737 15.679565 -30.106691 -0.829900 -7.807734 0.335531 9.277151 -13.270758 -32.345566 -11.439505 -4.133172 -1.177209 -2.366259 -0.927207 -4.720006 11.703562 -0.811300 0.000000 -40.512600 12.074362 -0.902340 -5.247328 -11.227283 -39.446326 6.132997 0.393331 0.826118 -4.437263 -4.822265 -29.295848 3.049507 -7.372700 0.000000 -54.384000
3.278537 17.173557 1.247938 15.545738 -31.054219 -0.750032 -7.823482 0.407666 9.232757 -12.928647 -31.934830 -11.601102 -4.072224 -1.190309 -2.436085 -0.887856 -4.304181 11.596841 -0.680200 0.000000 -40.585500 12.094783 -0.960239 -5.101294 -10.735266 -38.891848 5.761385 0.410030 0.846506 -4.617250 -4.767859 -28.945280 3.064989 -7.286799 -0.000000 -54.678200
